<svg xmlns="http://www.w3.org/2000/svg" version="1.1" xmlns:xlink="http://www.w3.org/1999/xlink" xmlns:svgjs="http://svgjs.dev/svgjs" width="1500" height="1500" viewBox="0 0 1500 1500"><rect width="1500" height="1500" fill="#ffffff"></rect><g transform="matrix(0.6666666666666666,0,0,0.6666666666666666,249.39436519522388,593.5149165082669)"><svg viewBox="0 0 396 124" data-background-color="#ffffff" preserveAspectRatio="xMidYMid meet" height="469" width="1500" xmlns="http://www.w3.org/2000/svg" xmlns:xlink="http://www.w3.org/1999/xlink"><g id="tight-bounds" transform="matrix(1,0,0,1,0.24008861730862918,0.060182365591401776)"><svg viewBox="0 0 395.52 123.8796352688172" height="123.8796352688172" width="395.52"><g><svg viewBox="0 0 395.52 123.8796352688172" height="123.8796352688172" width="395.52"><g><svg viewBox="0 0 395.52 123.8796352688172" height="123.8796352688172" width="395.52"><g id="textblocktransform"><svg viewBox="0 0 395.52 123.8796352688172" height="123.8796352688172" width="395.52" id="textblock"><g><svg viewBox="0 0 395.52 123.8796352688172" height="123.8796352688172" width="395.52"><path d="M394.594 26.57C392.735 13.711 387.435 10.136 387.435 10.136 371.165-3.108 350.86-0.253 332.619 1.65 300.414 1.727 268.339 4.556 236.208 6.073 168.767 6.305 100.749 2.498 33.643 11.885 27.339 14.766-6.54 12.451 1.121 28.216 3.129 34.774 10.456 42.052 10.232 48.069 11.236 49.124 12.631 46.706 13.226 48.224 15.309 52.313 18.711 50.384 21.501 52.801 17.614 59.257 20.403 64.631 23.062 70.264 18.377 71.729 12.371 71.035 9.675 75.896 9.396 79.419 7.89 78.75 6.235 78.596 5.026 78.493 2.59 78.879 2.999 79.985 4.394 83.765-1.594 85.951 2.162 89.654-0.422 93.666 3.948 97.138 3.353 101.484 3.278 102.359 3.687 103.105 4.338 103.31 7.22 104.416 3.018 106.576 3.464 108.917 33.029 124.913 65.104 113.854 95.394 121.21 103.259 116.066 97.346 123.035 100.489 121.955 102.943 120.695 104.728 125.916 107.499 122.958 107.927 122.11 107.276 120.104 108.8 120.489 109.6 120.695 110.307 120.644 110.418 119.461 110.586 117.686 109.117 118.792 108.726 117.866 112.947 113.186 111.906 124.321 115.866 123.858 115.68 122.495 114.528 120.541 116.889 120.798 119.232 118.844 119.306 117.223 121.389 121.621 121.463 122.573 121.835 123.241 122.43 123.704 128.938 118.921 135.409 125.401 142.233 123.241 146.417 120.875 150.433 124.527 154.672 123.627 156.16 122.907 157.666 121.621 159.098 123.781 176.632 124.244 195.319 122.315 211.943 123.858 256.364 120.978 303.836 125.041 350.674 121.235 361.719 119.769 373.192 117.686 383.958 116.015 383.958 116.015 392.679 111.437 392.679 90.863S394.538 72.861 394.817 56.479C395.096 40.097 396.398 39.428 394.538 26.57Z" opacity="1" fill="#000000" data-fill-palette-color="tertiary"></path><g transform="matrix(1,0,0,1,55.76832,26.230666666666668)"><svg width="283.98335999999995" viewBox="0.1 -30.55 159.63 40.15" height="71.41830193548387" data-palette-color="#ffffff"><path d="M29.7 8.2L29.7 8.2Q27.6 8.2 25.38 7.63 23.15 7.05 21.2 6.28 19.25 5.5 17.8 5L17.8 5Q15.15 4.05 12.85 3.15 10.55 2.25 9.6 2.05L9.6 2.05Q4.75 0.8 2.75 0.8L2.75 0.8Q2.4 1.05 2.1 1.23 1.8 1.4 1.45 1.45L1.45 1.45Q1.3 1.5 1 1.5L1 1.5Q0.1 1.5 0.1 0.9L0.1 0.9Q0.1 0.55 0.65 0.2L0.65 0.2Q1.05 0 1.58-0.03 2.1-0.05 2.65-0.1L2.65-0.1Q3.8-1.1 4.83-2.65 5.85-4.2 6.3-5L6.3-5Q6.7-5.7 7.08-6.38 7.45-7.05 7.85-7.7L7.85-7.7Q7.05-7.5 6.2-7.33 5.35-7.15 4.55-7.15L4.55-7.15Q3.1-7.15 1.93-7.75 0.75-8.35 0.75-9.95L0.75-9.95Q0.75-11 1.68-11.9 2.6-12.8 3.6-12.8L3.6-12.8Q4.2-12.8 4.2-12.3L4.2-12.3Q4.2-12 3.75-12L3.75-12Q3.2-12 2.75-11.35 2.3-10.7 2.3-10L2.3-10Q2.3-9.5 2.63-9.03 2.95-8.55 3.75-8.45L3.75-8.45Q4.5-8.3 5.35-8.3L5.35-8.3Q6.8-8.3 8.3-8.7L8.3-8.7Q9-10.1 9.63-11.48 10.25-12.85 10.85-14.2L10.85-14.2Q12.1-16.95 13.4-19.55 14.7-22.15 15.95-24.2 17.2-26.25 18.2-27.25L18.2-27.25Q20.1-29.05 22.03-29.8 23.95-30.55 25.5-30.55L25.5-30.55Q25.8-30.55 26.1-30.53 26.4-30.5 26.65-30.45L26.65-30.45Q28.5-30.15 29.25-29.18 30-28.2 30-26.85L30-26.85Q30-26.15 29.85-25.4L29.85-25.4Q29.2-22.25 27.23-19.5 25.25-16.75 22.45-14.53 19.65-12.3 16.48-10.75 13.3-9.2 10.3-8.5L10.3-8.5Q9.65-7.4 8.93-6.33 8.2-5.25 7.35-4.2L7.35-4.2Q6.85-3.45 5.9-2.27 4.95-1.1 3.95-0.1L3.95-0.1Q4.65-0.05 5.48 0.03 6.3 0.1 7.25 0.25L7.25 0.25Q11.4 0.9 15.58 2.18 19.75 3.45 23.85 4.5L23.85 4.5Q25 4.8 27.13 5.25 29.25 5.7 31.1 5.7L31.1 5.7Q32.9 5.7 33.85 5.05L33.85 5.05Q34.6 4.6 34.6 3.8L34.6 3.8Q34.6 3.2 34.05 2.8L34.05 2.8Q33.75 2.55 33.75 2.4L33.75 2.4Q33.75 1.9 34.35 2.25L34.35 2.25Q35 2.7 35.27 3.3 35.55 3.9 35.55 4.55L35.55 4.55Q35.55 5.3 35.27 5.93 35 6.55 34.6 6.8L34.6 6.8Q32.55 8.2 29.7 8.2ZM11.05-9.65L11.05-9.65Q16.6-12.05 20.8-15.5 25-18.95 27.45-24.6L27.45-24.6Q28.25-26.35 28.25-27.65L28.25-27.65Q28.25-28.7 27.6-29.3L27.6-29.3Q27.25-29.75 26.45-29.75L26.45-29.75Q24.8-29.75 23.05-28.6L23.05-28.6Q21.55-27.5 20.23-25.7 18.9-23.9 17.75-21.9 16.6-19.9 15.73-18.13 14.85-16.35 14.25-15.3L14.25-15.3Q13.85-14.5 13.03-12.95 12.2-11.4 11.05-9.65ZM35.95 0.5L35.95 0.5Q35.05 0.5 34.35 0.1 33.65-0.3 33.3-1.4L33.3-1.4Q33.25-1.65 33.17-1.98 33.1-2.3 33.1-2.65L33.1-2.65Q33.1-3.85 33.42-5.35 33.75-6.85 34.15-7.85L34.15-7.85Q33.95-7.7 33.45-6.85 32.95-6 32.2-4.88 31.45-3.75 30.52-2.63 29.6-1.5 28.52-0.78 27.45-0.05 26.25-0.05L26.25-0.05Q25.45-0.05 24.32-0.5 23.2-0.95 22.7-1.75L22.7-1.75Q22.2-2.55 22.2-3.75L22.2-3.75Q22.2-5.2 22.85-6.93 23.5-8.65 24.5-10.15L24.5-10.15Q24.85-10.65 25.3-11.35 25.75-12.05 26.2-12.58 26.65-13.1 26.85-13.15L26.85-13.15Q27.45-13.35 28.25-13.35L28.25-13.35Q29.1-13.35 29.5-13.15L29.5-13.15Q29.85-13 29.85-12.8L29.85-12.8Q29.85-12.55 29.45-12.15L29.45-12.15Q28.9-11.65 27.95-10.65 27-9.65 26.07-8.25 25.15-6.85 24.55-5.15L24.55-5.15Q24.05-3.8 24.05-2.8L24.05-2.8Q24.05-1.05 25.45-1.05L25.45-1.05Q26.65-1.05 28-2.05 29.35-3.05 30.62-4.5 31.9-5.95 32.92-7.38 33.95-8.8 34.5-9.65L34.5-9.65Q35-10.35 35.62-11.45 36.25-12.55 36.85-13.6 37.45-14.65 37.8-15.15L37.8-15.15Q38.15-15.15 38.87-15.03 39.6-14.9 40.12-14.6 40.65-14.3 40.4-13.85L40.4-13.85Q40.1-13.35 39.47-12.3 38.85-11.25 38.22-10.18 37.6-9.1 37.25-8.45L37.25-8.45Q36.05-6.15 35.7-3.5L35.7-3.5Q35.65-3.3 35.65-3.13 35.65-2.95 35.65-2.75L35.65-2.75Q35.65-0.75 37-0.75L37-0.75Q37.75-0.75 39-1.65 40.25-2.55 41.57-3.8 42.9-5.05 43.97-6.23 45.05-7.4 45.45-8L45.45-8Q45.55-8.15 45.75-8.15L45.75-8.15Q45.95-8.15 46.07-8 46.2-7.85 46.05-7.6L46.05-7.6Q45.6-6.75 44.52-5.48 43.45-4.2 42.15-2.93 40.85-1.65 39.6-0.75L39.6-0.75Q38.95-0.25 37.95 0.13 36.95 0.5 35.95 0.5ZM41.75 9.6L41.75 9.6Q41.3 9.6 41.3 9.05L41.3 9.05Q41.3 7.2 42.37 5.1 43.45 3 45.02 0.93 46.59-1.15 48.17-2.88 49.75-4.6 50.82-5.73 51.9-6.85 51.9-7.05L51.9-7.05Q51.9-7.55 51.59-8.47 51.3-9.4 50.8-10.18 50.3-10.95 49.7-10.95L49.7-10.95Q48.95-10.95 48.02-9.78 47.09-8.6 45.8-7.1L45.8-7.1Q45.5-6.75 45.25-6.75L45.25-6.75Q44.95-6.75 44.95-7.1L44.95-7.1Q44.95-7.4 45.15-7.6L45.15-7.6Q45.59-8.15 46.34-9.18 47.09-10.2 47.95-11.28 48.8-12.35 49.62-13.08 50.45-13.8 51.05-13.8L51.05-13.8Q52.3-13.8 52.84-13.05 53.4-12.3 53.7-11.18 54-10.05 54.4-8.8L54.4-8.8Q56.25-10.55 58-12.03 59.75-13.5 61.9-14.85L61.9-14.85Q62.25-15.05 62.65-15.05L62.65-15.05Q63.25-15.05 63.7-14.7 64.15-14.35 64.15-13.8L64.15-13.8Q64.15-13.3 63.67-13.28 63.2-13.25 62.95-13.15L62.95-13.15Q61.09-12.45 60.05-11.75 59-11.05 58.2-10.4L58.2-10.4 54.65-7.55Q54.65-7 55.2-5.55 55.75-4.1 56.45-2.75L56.45-2.75Q57.4-1 58.59-1L58.59-1Q59.4-1 60.2-1.55 61-2.1 61.8-2.9L61.8-2.9Q63-4.25 64.17-5.78 65.34-7.3 65.84-8L65.84-8Q66-8.15 66.2-8.15L66.2-8.15Q66.45-8.15 66.57-7.95 66.7-7.75 66.45-7.45L66.45-7.45Q66.15-7.05 65.42-6.05 64.7-5.05 63.77-3.9 62.84-2.75 61.9-1.8L61.9-1.8Q60.55-0.55 59.52-0.1 58.5 0.35 57.65 0.35L57.65 0.35Q57.45 0.35 57.2 0.33 56.95 0.3 56.7 0.25L56.7 0.25Q55.59 0 54.77-1.05 53.95-2.1 53.37-3.4 52.8-4.7 52.45-5.6L52.45-5.6Q51.55-4.65 50.27-3.28 49-1.9 47.59-0.28 46.2 1.35 44.97 3.05 43.75 4.75 42.97 6.3 42.2 7.85 42.15 9.05L42.15 9.05Q42.09 9.6 41.75 9.6ZM69.79 0.75L69.79 0.75Q67.54 0.75 65.89-0.3 64.24-1.35 64.24-3.5L64.24-3.5Q64.24-4.65 64.94-6.3L64.94-6.3Q65.44-7.45 66.79-8.95 68.14-10.45 69.94-11.88 71.74-13.3 73.59-14.23 75.44-15.15 76.94-15.15L76.94-15.15Q77.49-15.15 77.94-15L77.94-15Q78.79-14.7 79.12-14.05 79.44-13.4 79.44-12.7L79.44-12.7Q79.44-12.05 79.24-11.45 79.04-10.85 78.74-10.4L78.74-10.4Q77.84-9.05 76.17-8 74.49-6.95 72.77-6.35 71.04-5.75 69.94-5.65L69.94-5.65 69.84-5.65Q69.19-5.65 69.19-6.05L69.19-6.05Q69.19-6.3 69.59-6.3L69.59-6.3Q70.79-6.4 72.62-7.43 74.44-8.45 75.84-9.55L75.84-9.55Q76.44-10.05 77.27-10.95 78.09-11.85 78.09-12.7L78.09-12.7Q78.09-13.6 77.24-13.6L77.24-13.6Q76.79-13.6 76.32-13.4 75.84-13.2 75.54-13.1L75.54-13.1Q74.09-12.4 72.34-10.93 70.59-9.45 69.17-7.63 67.74-5.8 67.19-3.95L67.19-3.95Q67.04-3.55 66.99-3.18 66.94-2.8 66.94-2.45L66.94-2.45Q66.94-1.25 67.72-0.75 68.49-0.25 69.59-0.25L69.59-0.25Q71.24-0.25 72.99-0.98 74.74-1.7 76.39-2.85 78.04-4 79.42-5.33 80.79-6.65 81.74-7.9L81.74-7.9Q81.89-8.1 82.09-8.13 82.29-8.15 82.34-8.05L82.34-8.05Q82.54-8 82.54-7.78 82.54-7.55 82.44-7.35L82.44-7.35Q81.04-5.4 79.07-3.55 77.09-1.7 74.72-0.48 72.34 0.75 69.79 0.75ZM89.74 2.3L89.74 2.3Q87.14 2.3 84.97 1.43 82.79 0.55 81.52-1.28 80.24-3.1 80.24-5.95L80.24-5.95Q80.24-7.55 80.69-9.4L80.69-9.4Q81.39-12.35 83.02-15.3 84.64-18.25 86.92-20.85 89.19-23.45 91.89-25.48 94.59-27.5 97.47-28.68 100.34-29.85 103.19-29.85L103.19-29.85Q104.04-29.85 104.94-29.7L104.94-29.7Q106.94-29.35 107.92-28.23 108.89-27.1 108.89-25.65L108.89-25.65Q108.89-23.95 107.79-22.25 106.69-20.55 104.92-19.03 103.14-17.5 101.07-16.3 98.99-15.1 96.99-14.35 94.99-13.6 93.44-13.5L93.44-13.5Q92.49-13.45 92.49-14.05L92.49-14.05Q92.49-14.35 92.82-14.68 93.14-15 93.74-15.05L93.74-15.05Q97.64-15.4 101.02-17.43 104.39-19.45 106.19-22.95L106.19-22.95Q106.59-23.7 106.82-24.48 107.04-25.25 107.04-25.95L107.04-25.95Q107.04-27.05 106.42-27.83 105.79-28.6 104.24-28.6L104.24-28.6Q102.54-28.6 100.24-27.58 97.94-26.55 95.42-24.7 92.89-22.85 90.47-20.33 88.04-17.8 86.12-14.83 84.19-11.85 83.14-8.55L83.14-8.55Q82.49-6.55 82.49-4.85L82.49-4.85Q82.49-1.8 84.59-0.38 86.69 1.05 90.04 1.05L90.04 1.05Q92.94 1.05 96.42 0.05 99.89-0.95 103.19-3.03 106.49-5.1 108.74-8.3L108.74-8.3Q108.89-8.5 109.09-8.5L109.09-8.5Q109.29-8.5 109.47-8.3 109.64-8.1 109.49-7.9L109.49-7.9Q106.89-4.3 103.52-2.05 100.14 0.2 96.54 1.25 92.94 2.3 89.74 2.3ZM121.84 0.5L121.84 0.5Q120.99 0.5 120.26 0.1 119.54-0.3 119.19-1.4L119.19-1.4Q119.04-1.85 119.04-2.65L119.04-2.65Q119.04-3.75 119.34-5.1 119.64-6.45 119.99-7.4L119.99-7.4Q119.74-7.3 119.06-6.53 118.39-5.75 117.41-4.67 116.44-3.6 115.26-2.53 114.09-1.45 112.84-0.75 111.59-0.05 110.39-0.05L110.39-0.05Q109.59-0.05 108.69-0.53 107.79-1 107.24-1.75L107.24-1.75Q106.49-2.75 106.49-3.8L106.49-3.8Q106.49-5.15 107.41-6.6 108.34-8.05 109.81-9.43 111.29-10.8 112.96-11.93 114.64-13.05 116.16-13.83 117.69-14.6 118.64-14.85L118.64-14.85Q119.64-15.15 120.89-15.15L120.89-15.15Q121.59-15.15 122.34-14.98 123.09-14.8 123.59-14.4L123.59-14.4Q123.99-14.2 124.24-13.85 124.49-13.5 124.49-13.1L124.49-13.1Q124.49-12.7 124.14-12.85L124.14-12.85Q123.74-13.45 123.06-13.63 122.39-13.8 121.69-13.8L121.69-13.8Q119.69-13.8 117.29-12.5 114.89-11.2 112.99-9.45L112.99-9.45Q112.39-8.95 111.36-7.73 110.34-6.5 109.49-5.05 108.64-3.6 108.64-2.4L108.64-2.4Q108.64-1.75 108.99-1.25L108.99-1.25Q109.19-0.9 109.64-0.9L109.64-0.9Q110.34-0.9 111.51-1.65 112.69-2.4 113.94-3.48 115.19-4.55 116.21-5.55 117.24-6.55 117.69-7L117.69-7Q117.94-7.25 118.66-8.03 119.39-8.8 120.24-9.7 121.09-10.6 121.76-11.25 122.44-11.9 122.64-11.9L122.64-11.9Q122.89-11.9 123.46-11.78 124.04-11.65 124.44-11.4 124.84-11.15 124.59-10.75L124.59-10.75Q123.29-8.85 122.51-6.78 121.74-4.7 121.59-3.5L121.59-3.5Q121.54-3.3 121.54-3.13 121.54-2.95 121.54-2.75L121.54-2.75Q121.54-0.75 122.94-0.75L122.94-0.75Q123.69-0.75 124.94-1.65 126.19-2.55 127.49-3.8 128.79-5.05 129.86-6.23 130.94-7.4 131.34-8L131.34-8Q131.49-8.15 131.64-8.15L131.64-8.15Q131.84-8.15 131.99-7.98 132.14-7.8 131.99-7.55L131.99-7.55Q131.44-6.65 130.39-5.4 129.34-4.15 128.04-2.9 126.74-1.65 125.49-0.75L125.49-0.75Q124.84-0.25 123.84 0.13 122.84 0.5 121.84 0.5ZM137.14 0.6L137.14 0.6Q136.29 0.6 135.64 0.23 134.99-0.15 134.74-1.2L134.74-1.2Q134.59-1.75 134.59-2.3L134.59-2.3Q134.59-3.8 135.36-5.23 136.14-6.65 137.19-7.88 138.24-9.1 138.99-9.95L138.99-9.95Q139.39-10.35 139.91-11 140.44-11.65 140.44-12.3L140.44-12.3Q140.44-12.7 140.04-13.08 139.64-13.45 138.59-13.6L138.59-13.6Q137.99-13.7 137.46-13.78 136.94-13.85 136.39-13.85L136.39-13.85Q134.99-11.95 133.66-10.03 132.34-8.1 130.84-6.25L130.84-6.25Q130.49-5.9 130.24-5.9L130.24-5.9Q129.94-5.9 129.94-6.2L129.94-6.2Q129.94-6.5 130.24-6.8L130.24-6.8Q132.94-10.1 134.89-13.85L134.89-13.85Q134.64-13.85 134.14-13.88 133.64-13.9 133.34-13.95L133.34-13.95Q132.99-14.05 132.79-14.25 132.59-14.45 132.59-14.65L132.59-14.65Q132.59-14.95 132.84-15L132.84-15Q133.49-15.2 134.24-15.6 134.99-16 135.64-16.65L135.64-16.65Q136.34-17.35 136.94-18.13 137.54-18.9 137.89-19.3L137.89-19.3Q138.24-19.55 138.64-19.55L138.64-19.55Q138.89-19.55 139.11-19.4 139.34-19.25 139.34-18.95L139.34-18.95Q139.34-18.6 139.04-18.05L139.04-18.05Q138.59-17.35 138.06-16.5 137.54-15.65 137.09-14.95L137.09-14.95Q137.99-14.9 138.89-14.85 139.79-14.8 140.74-14.8L140.74-14.8Q141.24-14.8 141.71-14.83 142.19-14.85 142.69-14.85L142.69-14.85Q144.19-14.85 144.19-14.1L144.19-14.1Q144.19-13.6 143.66-12.88 143.14-12.15 142.39-11.3L142.39-11.3Q140.69-9.35 139.49-7.2 138.29-5.05 137.89-3.9L137.89-3.9Q137.49-2.7 137.49-2.1L137.49-2.1Q137.49-0.9 138.44-0.9L138.44-0.9Q139.29-0.9 140.51-1.75 141.74-2.6 143.04-3.83 144.34-5.05 145.39-6.23 146.44-7.4 146.89-8L146.89-8Q146.99-8.15 147.19-8.15L147.19-8.15Q147.39-8.15 147.54-7.98 147.69-7.8 147.54-7.55L147.54-7.55Q146.99-6.7 145.94-5.43 144.89-4.15 143.59-2.9 142.29-1.65 141.04-0.75L141.04-0.75Q140.39-0.25 139.26 0.18 138.14 0.6 137.14 0.6ZM148.68 0.5L148.68 0.5Q147.78 0.5 147.06 0.1 146.33-0.3 145.98-1.4L145.98-1.4Q145.93-1.55 145.91-1.7 145.88-1.85 145.88-2.05L145.88-2.05Q145.88-3.05 146.33-4.55 146.78-6.05 147.43-7.45L147.43-7.45Q147.13-7.05 146.73-6.48 146.33-5.9 145.58-5L145.58-5Q145.38-4.8 145.13-4.8L145.13-4.8Q144.78-4.8 144.78-5.2L144.78-5.2Q144.78-5.5 144.98-5.7L144.98-5.7Q146.28-7.35 147.31-8.65 148.33-9.95 148.83-10.85L148.83-10.85Q148.83-10.95 149.13-11.48 149.43-12 149.93-12.95L149.93-12.95Q149.53-12.9 149.26-12.88 148.98-12.85 148.78-12.85L148.78-12.85Q148.43-12.85 148.18-13.15 147.93-13.45 148.13-13.9L148.13-13.9Q148.38-14.6 149.23-14.7 150.08-14.8 150.73-14.85L150.73-14.85Q150.78-14.95 150.93-14.95L150.93-14.95Q151.53-16.05 152.08-17.1 152.63-18.15 153.01-18.85 153.38-19.55 153.38-19.6L153.38-19.6Q154.38-21.2 154.68-21.73 154.98-22.25 155.48-22.35L155.48-22.35Q156.03-22.4 156.66-22.3 157.28-22.2 157.48-21.85L157.48-21.85Q157.63-21.65 157.63-21.35L157.63-21.35Q157.63-20.9 157.43-20.48 157.23-20.05 157.03-19.8L157.03-19.8Q156.83-19.45 156.51-19.33 156.18-19.2 155.93-18.7L155.93-18.7Q155.43-17.75 154.83-16.65 154.23-15.55 153.58-14.55L153.58-14.55 154.18-14.6Q155.38-14.7 156.46-14.85 157.53-15 158.93-14.95L158.93-14.95Q159.18-14.95 159.46-14.88 159.73-14.8 159.73-14.65L159.73-14.65Q159.73-14.45 158.43-14.1L158.43-14.1Q157.93-13.9 156.26-13.68 154.58-13.45 152.83-13.25L152.83-13.25Q152.33-12.3 151.93-11.68 151.53-11.05 151.38-10.75L151.38-10.75Q150.28-8.45 149.41-6.58 148.53-4.7 148.43-3.5L148.43-3.5Q148.38-3.3 148.38-3.13 148.38-2.95 148.38-2.75L148.38-2.75Q148.38-0.75 149.68-0.75L149.68-0.75Q150.48-0.75 151.73-1.63 152.98-2.5 154.28-3.78 155.58-5.05 156.66-6.23 157.73-7.4 158.13-8L158.13-8Q158.28-8.15 158.43-8.15L158.43-8.15Q158.63-8.15 158.76-8 158.88-7.85 158.78-7.6L158.78-7.6Q158.33-6.75 157.26-5.48 156.18-4.2 154.86-2.93 153.53-1.65 152.28-0.75L152.28-0.75Q151.63-0.25 150.66 0.13 149.68 0.5 148.68 0.5Z" opacity="1" transform="matrix(1,0,0,1,0,0)" fill="#ffffff" class="wordmark-text-0" data-fill-palette-color="quaternary" id="text-0"></path></svg></g></svg></g></svg></g></svg></g><g></g></svg></g><defs></defs></svg><rect width="395.52" height="123.8796352688172" fill="none" stroke="none" visibility="hidden"></rect></g></svg></g></svg>